<svg width="17" height="17" viewBox="0 0 17 17" fill="none" xmlns="http://www.w3.org/2000/svg">
<path d="M1.66135 0.209564C0.998836 0.209564 0.461548 0.746817 0.461548 1.40933C0.461548 2.07184 0.998836 2.60913 1.66135 2.60913C2.32386 2.60913 2.86114 2.0718 2.86114 1.40933C2.86114 0.746817 2.32386 0.209564 1.66135 0.209564Z" fill="#D9FFFE"/>
<path d="M5.58811 2.81874H15.0522C15.8306 2.81874 16.4616 2.18777 16.4616 1.40937C16.4616 0.630976 15.8306 0 15.0522 0H5.58811C4.80972 0 4.17874 0.630976 4.17874 1.40937C4.17874 2.18777 4.80972 2.81874 5.58811 2.81874Z" fill="#D9FFFE"/>
<path d="M1.66135 4.65121C0.998836 4.65121 0.461548 5.18847 0.461548 5.85098C0.461548 6.51349 0.998836 7.05078 1.66135 7.05078C2.32386 7.05078 2.86114 6.51349 2.86114 5.85098C2.86114 5.18847 2.32386 4.65121 1.66135 4.65121Z" fill="#D9FFFE"/>
<path d="M15.0522 4.44162H5.58811C4.80972 4.44162 4.17874 5.0726 4.17874 5.85099C4.17874 6.62939 4.80972 7.26036 5.58811 7.26036H15.0522C15.8306 7.26036 16.4616 6.62939 16.4616 5.85099C16.4616 5.0726 15.8306 4.44162 15.0522 4.44162Z" fill="#D9FFFE"/>
<path d="M1.66135 9.09283C0.998836 9.09283 0.461548 9.63009 0.461548 10.2926C0.461548 10.9551 0.998836 11.4924 1.66135 11.4924C2.32386 11.4924 2.86114 10.9551 2.86114 10.2926C2.86114 9.63009 2.32386 9.09283 1.66135 9.09283Z" fill="#D9FFFE"/>
<path d="M15.0522 8.88324H5.58811C4.80972 8.88324 4.17874 9.51422 4.17874 10.2926C4.17874 11.071 4.80972 11.702 5.58811 11.702H15.0522C15.8306 11.702 16.4616 11.071 16.4616 10.2926C16.4616 9.51422 15.8306 8.88324 15.0522 8.88324Z" fill="#D9FFFE"/>
<path d="M1.66135 13.5345C0.998836 13.5345 0.461548 14.0717 0.461548 14.7342C0.461548 15.3968 0.998836 15.9341 1.66135 15.9341C2.32386 15.9341 2.86114 15.3968 2.86114 14.7342C2.86114 14.0717 2.32386 13.5345 1.66135 13.5345Z" fill="#D9FFFE"/>
<path d="M15.0522 13.3249H5.58811C4.80972 13.3249 4.17874 13.9559 4.17874 14.7343C4.17874 15.5127 4.80972 16.1436 5.58811 16.1436H15.0522C15.8306 16.1436 16.4616 15.5127 16.4616 14.7343C16.4616 13.9559 15.8306 13.3249 15.0522 13.3249Z" fill="#D9FFFE"/>
</svg>
