<svg width="17" height="17" viewBox="0 0 17 17" fill="none" xmlns="http://www.w3.org/2000/svg">
<path d="M1.7 3.4H15.3C16.2389 3.4 17 2.63885 17 1.7C17 0.761147 16.2389 0 15.3 0H1.7C0.761147 0 0 0.761147 0 1.7C0 2.63885 0.761147 3.4 1.7 3.4Z" fill="white"/>
<path d="M15.3 6.80002H1.7C0.761147 6.80002 0 7.56116 0 8.50002C0 9.43887 0.761147 10.2 1.7 10.2H15.3C16.2389 10.2 17 9.43887 17 8.50002C17 7.56116 16.2389 6.80002 15.3 6.80002Z" fill="white"/>
<path d="M15.3 13.6H1.7C0.761147 13.6 0 14.3612 0 15.3C0 16.2389 0.761147 17 1.7 17H15.3C16.2389 17 17 16.2389 17 15.3C17 14.3612 16.2389 13.6 15.3 13.6Z" fill="white"/>
</svg>
