<svg width="20" height="18" viewBox="0 0 20 18" fill="none" xmlns="http://www.w3.org/2000/svg">
<path d="M14.4708 6.19125C14.4708 5.61095 14.9407 5.14099 15.521 5.14099C16.1013 5.14099 16.5713 5.61095 16.5713 6.19125C16.5713 6.77156 16.1013 7.24152 15.521 7.24152C14.9407 7.24152 14.4708 6.77156 14.4708 6.19125ZM4.47895 7.24152C5.05926 7.24152 5.52922 6.77156 5.52922 6.19125C5.52922 5.61095 5.05926 5.14099 4.47895 5.14099C3.89865 5.14099 3.42869 5.61095 3.42869 6.19125C3.4246 6.77156 3.89865 7.24152 4.47895 7.24152ZM0 10.6498V1.73273C0 0.776461 0.776461 0 1.73273 0H18.2632C19.2195 0 19.9959 0.776461 19.9959 1.73273V10.6498C19.9959 11.606 19.2195 12.3825 18.2632 12.3825H1.73273C0.780548 12.3825 0 11.606 0 10.6498ZM1.47936 8.85166C1.57744 8.83531 1.68369 8.82305 1.78586 8.82305C2.75439 8.82305 3.53903 9.60768 3.53903 10.5762C3.53903 10.6866 3.52677 10.7928 3.51042 10.8991H16.3425C16.3343 10.8296 16.3302 10.756 16.3302 10.6825C16.3302 9.71393 17.1148 8.9293 18.0834 8.9293C18.2346 8.9293 18.3776 8.94973 18.5166 8.98243V3.6085C18.3776 3.64528 18.2346 3.66163 18.0834 3.66163C17.1148 3.66163 16.3302 2.87699 16.3302 1.90846C16.3302 1.76134 16.3506 1.61831 16.3833 1.47936H3.51042C3.53085 1.58561 3.53903 1.69187 3.53903 1.80221C3.53903 2.77074 2.75439 3.55537 1.78586 3.55537C1.67961 3.55537 1.57744 3.5472 1.47936 3.52677V8.85166ZM19.2603 13.5554H0.768288C0.359624 13.5554 0.0286065 13.8864 0.0286065 14.2951C0.0286065 14.7037 0.359624 15.0347 0.768288 15.0347H19.2603C19.669 15.0347 20 14.7037 20 14.2951C20 13.8864 19.669 13.5554 19.2603 13.5554ZM19.2603 16.2403H0.768288C0.359624 16.2403 0.0286065 16.5713 0.0286065 16.98C0.0286065 17.3886 0.359624 17.7197 0.768288 17.7197H19.2603C19.669 17.7197 20 17.3886 20 16.98C20 16.5713 19.669 16.2403 19.2603 16.2403ZM6.20351 6.19125C6.20351 4.0989 7.90764 2.39477 10 2.39477C12.0924 2.39477 13.7965 4.0989 13.7965 6.19125C13.7965 8.28361 12.0924 9.98774 10 9.98774C7.90764 9.98774 6.20351 8.28361 6.20351 6.19125ZM8.05885 6.31794L8.76992 7.0331L9.50552 7.77278L10.2452 7.03719L11.9412 5.34941L11.2056 4.60973L9.5096 6.29751L8.79853 5.58235L8.05885 6.31794Z" fill="#4ECC77"/>
</svg>
